<svg width="896" height="897" xmlns="http://www.w3.org/2000/svg" xmlns:xlink="http://www.w3.org/1999/xlink" overflow="hidden"><g transform="translate(-140 -287)"><path d="M140 320C140 302.327 154.327 288 172 288L300 288C317.673 288 332 302.327 332 320L332 1151C332 1168.67 317.673 1183 300 1183L172 1183C154.327 1183 140 1168.67 140 1151Z" fill="#FFFFFF" fill-rule="evenodd"/><path d="M1004 991C1021.67 991 1036 1005.33 1036 1023L1036 1151C1036 1168.67 1021.67 1183 1004 1183L172.001 1183C154.327 1183 140 1168.67 140 1151L140 1023C140 1005.33 154.327 991 172.001 991Z" fill="#FFFFFF" fill-rule="evenodd"/><path d="M846.813 341.115C859.31 328.618 879.571 328.618 892.068 341.115L982.577 431.624C995.074 444.121 995.074 464.383 982.577 476.88L394.7 1064.76C382.203 1077.25 361.941 1077.25 349.445 1064.76L258.936 974.248C246.439 961.751 246.439 941.489 258.935 928.992Z" fill="#FFFFFF" fill-rule="evenodd"/></g></svg>